<svg id="Layer_1" data-name="Layer 1" xmlns="http://www.w3.org/2000/svg" viewBox="0 0 426.74 341.5"><title>menu-black</title><path d="M220.77,93q-95.24,0-190.49,0c-13.43,0-22.8-9.29-22.48-22a20.73,20.73,0,0,1,17-20,47.48,47.48,0,0,1,8.44-.62q187.74,0,375.48,0A38.33,38.33,0,0,1,420,51.68c9.78,3.09,15.32,12.66,14,23.19-1.19,9.43-9.5,17.24-19.27,18-1.82.14-3.66.08-5.5.08Z" transform="translate(-7.64 -50.25)"/><path d="M221,349q95.51,0,191,0c15.84,0,26.36,14.4,21,28.64-3.19,8.44-9.59,12.95-18.48,13.94a50.19,50.19,0,0,1-5.49.14q-188,0-376-.13a34.7,34.7,0,0,1-15.23-3.49C9.48,383.86,6,373.86,8.37,364.88A21.5,21.5,0,0,1,27.5,349.06c1.83-.12,3.67-.06,5.5-.06Z" transform="translate(-7.64 -50.25)"/><path d="M220.49,242.25q-94,0-188-.05a35.55,35.55,0,0,1-10.81-1.32C12,237.67,6.53,228,8,217.49c1.32-9.5,9.67-17.06,19.53-17.65,1.83-.11,3.67-.09,5.5-.09q188,0,376,.05a37.16,37.16,0,0,1,11.31,1.32C430,204.31,435.48,214,434,224.49a21.06,21.06,0,0,1-19.54,17.66c-2.16.13-4.33.1-6.5.1Z" transform="translate(-7.64 -50.25)"/></svg>